<svg width="16" height="18" viewBox="0 0 18 20" fill="none" xmlns="http://www.w3.org/2000/svg">
<path d="M8.94445 0C6.0873 0 3.75391 2.33731 3.75391 5.19054C3.75391 8.04378 6.0873 10.385 8.94445 10.385C11.8016 10.385 14.135 8.04768 14.135 5.19445C14.135 2.34122 11.8016 0 8.94445 0Z" fill="#757575"/>
<path d="M17.856 14.5359C17.7192 14.1958 17.5394 13.8792 17.3361 13.5822C16.2926 12.0422 14.6822 11.0182 12.8687 10.772C12.642 10.7485 12.3918 10.7954 12.212 10.9322C11.2583 11.6357 10.1249 11.9992 8.9484 11.9992C7.77193 11.9992 6.63454 11.6357 5.68476 10.9322C5.50497 10.7954 5.25482 10.729 5.02813 10.772C3.21456 11.0221 1.58079 12.0422 0.560661 13.5822C0.357416 13.8753 0.173715 14.2154 0.0408242 14.5359C-0.025621 14.6727 -0.0060783 14.829 0.0642755 14.9658C0.244069 15.2824 0.470764 15.599 0.677917 15.8726C0.994509 16.3025 1.33455 16.6895 1.7215 17.053C2.03809 17.3696 2.40159 17.6666 2.76508 17.9598C4.55519 19.2965 6.7088 20 8.93276 20C11.1567 20 13.3103 19.2965 15.1004 17.9598C15.4639 17.6862 15.8274 17.3696 16.144 17.053C16.5075 16.6895 16.871 16.3064 17.1876 15.8726C17.4143 15.5795 17.6175 15.2824 17.8013 14.9658C17.9029 14.829 17.9263 14.6688 17.856 14.5359Z" fill="#757575"/>
</svg>
